<?xml version="1.0" standalone="no"?>
<!DOCTYPE svg PUBLIC "-//W3C//DTD SVG 20010904//EN"
 "http://www.w3.org/TR/2001/REC-SVG-20010904/DTD/svg10.dtd">
<svg version="1.0" xmlns="http://www.w3.org/2000/svg"
 width="96.000000pt" height="96.000000pt" viewBox="0 0 96.000000 96.000000"
 preserveAspectRatio="xMidYMid meet">
<metadata>
Created by potrace 1.11, written by Peter Selinger 2001-2013
</metadata>
<g transform="translate(0.000000,96.000000) scale(0.100000,-0.100000)"
fill="#000000" stroke="none">
<path d="M444 869 c-3 -6 -1 -16 5 -22 18 -18 14 -67 -6 -67 -10 0 -29 -3 -42
-7 -20 -5 -22 -3 -16 16 8 27 -12 36 -48 22 -29 -11 -37 -41 -12 -41 24 0 17
-17 -16 -41 l-32 -22 -18 22 c-11 13 -19 29 -19 37 0 20 -24 17 -45 -6 -17
-19 -14 -57 4 -46 5 3 19 -2 31 -12 21 -17 21 -18 3 -50 -21 -36 -30 -39 -49
-14 -16 22 -34 6 -37 -34 -2 -25 1 -29 22 -26 21 2 23 -1 17 -29 -3 -17 -6
-35 -6 -40 0 -13 -54 -11 -67 2 -17 17 -33 2 -33 -31 0 -33 16 -48 33 -31 6 6
23 11 38 11 22 0 28 -6 33 -31 9 -46 8 -49 -16 -46 -20 2 -23 -2 -21 -27 3
-42 18 -53 43 -31 11 10 21 16 23 14 2 -2 11 -17 21 -32 17 -28 17 -29 -3 -48
-12 -11 -26 -17 -31 -14 -22 14 -21 -27 1 -51 22 -23 24 -24 36 -8 7 9 10 20
8 24 -3 4 4 15 14 25 19 16 21 16 56 -8 l36 -24 -23 -16 c-28 -19 -15 -37 28
-40 25 -2 29 1 27 21 -3 20 1 22 25 18 15 -2 33 -5 40 -5 15 -1 16 -53 1 -68
-17 -17 -2 -33 31 -33 33 0 48 16 31 33 -6 6 -11 23 -11 38 0 22 6 28 31 33
46 9 49 8 46 -16 -2 -20 2 -23 27 -21 38 3 67 43 31 43 -24 0 -17 17 16 40 29
21 31 21 50 4 11 -10 17 -24 15 -31 -9 -23 24 -27 46 -5 21 21 19 60 -3 47 -6
-4 -19 2 -30 14 -20 21 -20 21 4 56 l24 36 16 -23 c19 -28 37 -15 40 28 2 25
-1 29 -22 26 -21 -2 -23 1 -17 29 3 17 6 35 6 40 0 13 54 11 67 -2 17 -17 33
-2 33 31 0 33 -16 48 -33 31 -6 -6 -23 -11 -38 -11 -22 0 -28 6 -33 31 -9 46
-8 49 17 46 19 -2 22 2 20 27 -3 40 -21 56 -37 34 -19 -25 -28 -22 -49 14 -18
32 -18 33 3 50 12 10 26 15 31 12 22 -13 20 29 -2 52 -22 23 -24 24 -36 8 -7
-9 -10 -20 -8 -24 3 -4 -4 -15 -14 -25 -19 -16 -21 -16 -56 8 l-36 24 23 16
c28 19 15 37 -28 40 -25 2 -29 -1 -27 -21 3 -20 -1 -22 -25 -18 -15 2 -33 5
-39 5 -16 1 -17 53 -2 68 17 17 2 33 -31 33 -16 0 -32 -5 -36 -11z"/>
</g>
</svg>
